<svg width="54" height="56" viewBox="0 0 54 56" fill="none" xmlns="http://www.w3.org/2000/svg">
<path d="M13.4415 37.8244C10.293 37.8244 8.31514 36.3309 7.50784 33.3439L0.121094 6.21877C0.0403648 5.97658 0 5.7344 0 5.49221C0 5.25002 0 5.04819 0 4.88673C0 3.75652 0.363283 2.82813 1.08985 2.10157C1.89714 1.29427 2.90626 0.890625 4.11721 0.890625C5.00523 0.890625 5.81253 1.13281 6.53909 1.61719C7.34639 2.02084 7.83076 2.66668 7.99222 3.5547L12.4727 24.6251C12.6342 25.5131 12.9975 25.9571 13.5626 25.9571C14.1277 25.9571 14.5313 25.5131 14.7735 24.6251L21.0704 5.97658C21.4741 4.84637 22.1603 4.03908 23.129 3.5547C24.0978 2.98959 25.1069 2.70704 26.1564 2.70704C27.2058 2.70704 28.1746 2.98959 29.0626 3.5547C30.0314 4.03908 30.6772 4.84637 31.0001 5.97658L37.297 24.6251C37.5392 25.5131 37.9429 25.9571 38.508 25.9571C39.0731 25.9571 39.4364 25.5131 39.5978 24.6251L44.0783 3.5547C44.2398 2.66668 44.6838 2.02084 45.4104 1.61719C46.2176 1.13281 47.0653 0.890625 47.9533 0.890625C49.1643 0.890625 50.133 1.29427 50.8596 2.10157C51.6669 2.82813 52.0705 3.75652 52.0705 4.88673C52.0705 5.04819 52.0705 5.25002 52.0705 5.49221C52.0705 5.7344 52.0302 5.97658 51.9494 6.21877L44.5627 33.3439C43.7554 36.3309 41.7775 37.8244 38.6291 37.8244C37.2567 37.8244 36.0054 37.4207 34.8752 36.6134C33.8257 35.7254 33.0991 34.6356 32.6955 33.3439L27.1251 15.6641C26.8022 14.6146 26.4389 14.0899 26.0353 14.0899C25.5509 14.0899 25.1472 14.6146 24.8243 15.6641L19.3751 33.3439C18.9714 34.6356 18.2045 35.7254 17.0743 36.6134C16.0248 37.4207 14.8139 37.8244 13.4415 37.8244Z" fill="#4C4C4C"/>
<mask id="mask0_501_904" style="mask-type:alpha" maskUnits="userSpaceOnUse" x="41" y="0" width="13" height="18">
<path d="M49.2084 16.3128C47.5317 10.0553 43.5479 12.8826 41.7656 15.0785L42.8158 0.798881L49.2084 0L53.4971 2.76094C52.7661 9.8855 50.8851 22.5703 49.2084 16.3128Z" fill="#D9D9D9"/>
</mask>
<g mask="url(#mask0_501_904)">
<path d="M13.4708 37.799C10.3223 37.799 8.34444 36.3055 7.53714 33.3185L0.150391 6.19338C0.0696616 5.95119 0.0292969 5.70901 0.0292969 5.46682C0.0292969 5.22463 0.0292969 5.0228 0.0292969 4.86134C0.0292969 3.73113 0.39258 2.80274 1.11915 2.07618C1.92644 1.26888 2.93556 0.865234 4.1465 0.865234C5.03453 0.865234 5.84182 1.10742 6.56839 1.5918C7.37568 1.99545 7.86006 2.64128 8.02152 3.52931L12.502 24.5997C12.6635 25.4877 13.0267 25.9318 13.5919 25.9318C14.157 25.9318 14.5606 25.4877 14.8028 24.5997L21.0997 5.95119C21.5033 4.82098 22.1895 4.01369 23.1583 3.52931C24.1271 2.9642 25.1362 2.68165 26.1857 2.68165C27.2351 2.68165 28.2039 2.9642 29.0919 3.52931C30.0607 4.01369 30.7065 4.82098 31.0294 5.95119L37.3263 24.5997C37.5685 25.4877 37.9722 25.9318 38.5373 25.9318C39.1024 25.9318 39.4657 25.4877 39.6271 24.5997L44.1076 3.52931C44.2691 2.64128 44.7131 1.99545 45.4397 1.5918C46.2469 1.10742 47.0946 0.865234 47.9826 0.865234C49.1936 0.865234 50.1623 1.26888 50.8889 2.07618C51.6962 2.80274 52.0998 3.73113 52.0998 4.86134C52.0998 5.0228 52.0998 5.22463 52.0998 5.46682C52.0998 5.70901 52.0595 5.95119 51.9787 6.19338L44.592 33.3185C43.7847 36.3055 41.8068 37.799 38.6584 37.799C37.286 37.799 36.0347 37.3953 34.9044 36.588C33.855 35.7 33.1284 34.6102 32.7248 33.3185L27.1544 15.6387C26.8315 14.5893 26.4682 14.0645 26.0646 14.0645C25.5802 14.0645 25.1765 14.5893 24.8536 15.6387L19.4044 33.3185C19.0007 34.6102 18.2338 35.7 17.1036 36.588C16.0541 37.3953 14.8432 37.799 13.4708 37.799Z" fill="#957DF6"/>
</g>
<rect x="0.28125" y="45.9805" width="52.0697" height="9.13477" rx="4.56738" fill="#957DF6"/>
<rect x="0.28125" y="45.9805" width="42.8301" height="9.13477" rx="4.56738" fill="#4C4C4C"/>
<circle cx="45.6599" cy="14.6072" r="3.90923" transform="rotate(17.5486 45.6599 14.6072)" fill="#4C4C4C"/>
</svg>
